<svg xmlns="http://www.w3.org/2000/svg"><symbol id="googleplus" viewBox="0 0 16 16"><path d="M5.1 7.3V9H8c-.1.8-.9 2.2-2.9 2.2-1.7 0-3.2-1.4-3.2-3.2s1.4-3.2 3.2-3.2c1 0 1.7.4 2 .8l1.4-1.3C7.6 3.5 6.5 3 5.1 3 2.3 2.9 0 5.2 0 8s2.3 5.1 5.1 5.1c2.9 0 4.9-2.1 4.9-5 0-.3 0-.6-.1-.8H5.1zm10.9 0h-1.5V5.8H13v1.5h-1.5v1.5H13v1.5h1.5V8.7H16"/></symbol><symbol id="twitter" viewBox="0 0 16 16"><path d="M16 3c-.6.3-1.2.4-1.9.5.7-.4 1.2-1 1.4-1.8-.6.4-1.3.6-2.1.8-.6-.6-1.4-1-2.4-1-1.7 0-3.2 1.5-3.2 3.3 0 .3 0 .5.1.8-2.7-.2-5.2-1.5-6.8-3.5-.3.5-.4 1-.4 1.7 0 1.1.6 2.1 1.5 2.7-.5 0-1-.2-1.5-.4C.7 7.7 1.8 9 3.3 9.3c-.3.1-.6.1-.9.1-.2 0-.4 0-.6-.1.4 1.3 1.6 2.3 3.1 2.3-1.1.9-2.5 1.4-4.1 1.4H0c1.5.9 3.2 1.5 5 1.5 6 0 9.3-5 9.3-9.3v-.4C15 4.3 15.6 3.7 16 3z"/></symbol><symbol id="facebook" viewBox="0 0 16 16"><path d="M15.1 0H.9C.4 0 0 .4 0 .9v14.2c0 .5.4.9.9.9h7.7V9.8H6.5V7.4h2.1V5.6c0-2.1 1.3-3.2 3.1-3.2.9 0 1.6.1 1.9.1v2.2h-1.3c-1 0-1.2.5-1.2 1.2v1.5h2.4l-.3 2.4H11V16h4.1c.5 0 .9-.4.9-.9V.9c0-.5-.4-.9-.9-.9"/></symbol></svg>
