<?xml version="1.0" standalone="no"?>
<!DOCTYPE svg PUBLIC "-//W3C//DTD SVG 20010904//EN"
 "http://www.w3.org/TR/2001/REC-SVG-20010904/DTD/svg10.dtd">
<svg version="1.0" xmlns="http://www.w3.org/2000/svg"
 width="600.000000pt" height="600.000000pt" viewBox="0 0 600.000000 600.000000"
 preserveAspectRatio="xMidYMid meet">
<metadata>
Created by potrace 1.11, written by Peter Selinger 2001-2013
</metadata>
<g transform="translate(0.000000,600.000000) scale(0.100000,-0.100000)"
fill="#000000" stroke="none">
<path d="M1245 4409 c-557 -71 -1033 -479 -1189 -1021 -96 -335 -62 -717 91
-1023 202 -402 570 -680 1020 -772 83 -17 197 -18 1838 -18 l1750 0 102 23
c300 66 547 203 750 415 153 161 254 329 323 536 51 155 70 274 70 446 0 172
-19 291 -70 446 -69 207 -170 375 -323 536 -201 210 -446 346 -745 415 l-97
22 -1725 2 c-956 1 -1756 -2 -1795 -7z m3605 -380 c128 -39 218 -80 311 -141
242 -159 399 -389 466 -681 22 -98 22 -326 0 -424 -93 -410 -364 -696 -777
-822 l-85 -26 -1715 -3 c-1823 -3 -1787 -4 -1945 45 -171 54 -322 150 -455
289 -122 129 -202 268 -257 449 -25 84 -27 102 -27 280 0 178 2 196 27 280 55
181 135 321 257 449 162 170 333 267 560 316 81 18 164 19 1820 17 l1735 -2
85 -26z"/>
<path d="M4516 3636 c-166 -62 -183 -300 -27 -383 94 -49 217 -18 274 69 32
50 41 93 33 152 -19 125 -160 206 -280 162z"/>
<path d="M1296 3594 c-3 -9 -6 -108 -6 -220 l0 -204 -209 0 c-177 0 -212 -2
-225 -16 -13 -13 -16 -42 -16 -164 0 -137 2 -150 19 -160 12 -6 103 -10 225
-10 l206 0 0 -215 c0 -202 1 -215 19 -225 11 -5 80 -10 155 -10 109 0 138 3
150 16 14 13 16 48 16 225 l0 209 209 0 c177 0 212 2 225 16 13 13 16 42 16
159 0 137 -1 145 -22 159 -19 13 -58 16 -225 16 l-203 0 0 208 c0 148 -3 211
-12 220 -8 8 -59 12 -164 12 -129 0 -153 -2 -158 -16z"/>
<path d="M4054 3186 c-41 -18 -102 -92 -110 -133 -13 -68 0 -140 32 -180 56
-68 76 -78 168 -78 71 0 87 3 118 24 73 51 105 134 86 225 -12 56 -65 121
-115 143 -41 17 -139 16 -179 -1z"/>
<path d="M4945 3186 c-38 -17 -91 -73 -104 -109 -15 -40 -14 -132 3 -170 17
-39 71 -92 109 -106 39 -15 131 -14 170 2 45 19 105 89 113 132 19 101 -12
182 -88 237 -41 28 -155 37 -203 14z"/>
<path d="M4489 2737 c-126 -67 -147 -244 -39 -341 154 -139 395 11 341 212
-34 125 -186 190 -302 129z"/>
</g>
</svg>
