<svg id="Layer_1" xmlns="http://www.w3.org/2000/svg" xmlns:xlink="http://www.w3.org/1999/xlink" viewBox="0 0 200.4 95"><style>.st0{clip-path:url(#SVGID_2_);} .st1{clip-path:url(#SVGID_4_);}</style><g id="Logo_-_Icon"><defs><path id="SVGID_1_" d="M0 0h200.4v95H0z"/></defs><clipPath id="SVGID_2_"><use xlink:href="#SVGID_1_" overflow="visible"/></clipPath><g class="st0"><defs><path id="SVGID_3_" d="M0 0h200.4v95H0z"/></defs><clipPath id="SVGID_4_"><use xlink:href="#SVGID_3_" overflow="visible"/></clipPath><path class="st1" d="M54.4 41.7V28.5c0-1-.8-1.7-1.7-1.7h-8.1c-1 0-1.7.8-1.7 1.7v13.3H29.6c-1 0-1.7.8-1.7 1.7v8.1c0 1 .8 1.7 1.7 1.7h13.3v13.3c0 1 .8 1.7 1.7 1.7h8.1c1 0 1.7-.8 1.7-1.7V53.3h13.3c1 0 1.7-.8 1.7-1.7v-8.1c0-1-.8-1.7-1.7-1.7H54.4z"/><path class="st1" d="M152.9 95H47.5C21.3 95 0 73.7 0 47.5S21.3 0 47.5 0h105.4c26.2 0 47.5 21.3 47.5 47.5S179.1 95 152.9 95M47.5 11.8c-19.7 0-35.7 16-35.7 35.7s16 35.7 35.7 35.7h105.4c19.7 0 35.7-16 35.7-35.7s-16-35.7-35.7-35.7H47.5z"/><path class="st1" d="M175.1 47.5c0 3.9-3.1 7-7 7s-7-3.1-7-7 3.1-7 7-7c3.8 0 7 3.1 7 7M160.2 32.7c0 3.9-3.1 7-7 7s-7-3.1-7-7 3.1-7 7-7 7 3.1 7 7M145.4 47.5c0 3.9-3.1 7-7 7s-7-3.1-7-7 3.1-7 7-7c3.8 0 7 3.1 7 7M160.2 62.3c0 3.9-3.1 7-7 7s-7-3.1-7-7 3.1-7 7-7 7 3.2 7 7"/></g></g></svg>